<?xml version="1.0" standalone="no"?>
<!DOCTYPE svg PUBLIC "-//W3C//DTD SVG 20010904//EN"
 "http://www.w3.org/TR/2001/REC-SVG-20010904/DTD/svg10.dtd">
<svg version="1.0" xmlns="http://www.w3.org/2000/svg"
 width="156.000000pt" height="156.000000pt" viewBox="0 0 156.000000 156.000000"
 preserveAspectRatio="xMidYMid meet">
<metadata>
Created by potrace 1.14, written by Peter Selinger 2001-2017
</metadata>
<g transform="translate(0.000000,156.000000) scale(0.100000,-0.100000)"
fill="#000000" stroke="none">
<path d="M1245 1514 c-27 -13 -56 -24 -62 -24 -22 0 -14 -26 11 -38 26 -12 41
-57 34 -103 l-3 -24 -540 0 c-297 0 -542 -3 -545 -7 -3 -3 -5 -293 -5 -645 l0
-638 648 0 647 -1 0 91 c1 608 -1 1190 -5 1193 -3 3 -26 6 -52 7 -27 2 -50 3
-53 4 -3 0 -5 46 -4 101 0 61 -4 101 -10 103 -6 2 -33 -7 -61 -19z m-450 -276
l-1 -73 -62 2 c-33 1 -89 9 -123 18 -137 36 -250 26 -338 -29 -70 -45 -111
-125 -105 -208 6 -78 43 -136 123 -188 l23 -15 -42 -24 c-23 -13 -59 -25 -81
-27 l-39 -4 0 310 0 310 323 0 323 0 -1 -72z m435 18 l0 -54 -62 5 c-35 3 -81
0 -103 -6 -97 -26 -176 -112 -193 -209 -37 -210 150 -347 316 -232 23 17 44
30 45 30 2 0 2 -16 1 -35 -3 -39 5 -43 53 -24 15 6 39 13 53 15 38 7 50 12 50
24 0 5 -13 10 -29 10 -17 0 -33 5 -37 12 -8 13 -13 469 -6 501 3 13 15 17 52
17 l47 0 0 -305 c0 -168 -3 -306 -6 -306 -3 -1 -140 -3 -303 -4 l-298 -1 0
198 0 198 25 0 c22 0 25 4 25 39 0 35 -2 38 -25 36 -25 -3 -25 -2 -25 71 l0
74 210 0 210 0 0 -54z m-30 -112 c24 -24 25 -28 25 -170 l0 -146 -28 -24 c-65
-56 -177 -14 -218 80 -52 120 -5 262 96 289 39 11 100 -3 125 -29z m-689 5
c91 -48 128 -218 68 -315 -59 -96 -193 -87 -246 16 -40 78 -34 219 12 270 40
44 114 57 166 29z m284 -256 l0 -198 -237 -1 c-222 0 -236 1 -227 17 7 15 22
17 91 16 147 -2 251 50 297 148 24 51 27 121 7 178 l-14 37 42 0 42 0 -1 -197z
m-609 -267 c-1 -65 21 -100 81 -131 l41 -20 -45 -19 c-25 -11 -61 -32 -79 -49
l-34 -29 0 151 c0 139 1 151 18 151 15 0 18 -8 18 -54z m609 -14 c1 -53 -1
-62 -14 -56 -42 17 -95 22 -242 24 -88 0 -167 4 -177 7 -32 11 -52 36 -52 65
l0 28 242 -2 243 -3 0 -63z m622 -39 c2 -100 1 -106 -12 -76 -36 85 -177 98
-227 21 -18 -28 -29 -68 -19 -68 4 0 14 11 21 24 19 36 65 56 103 45 39 -11
55 -27 66 -65 17 -61 -27 -140 -140 -249 -38 -37 -69 -69 -69 -71 0 -3 63 -4
140 -2 l140 3 -3 -40 -2 -40 -302 -3 -303 -2 0 40 0 40 129 0 129 0 15 45 16
45 -28 -21 c-23 -17 -40 -19 -108 -17 l-81 3 72 77 c78 83 116 148 116 197 0
63 -55 111 -127 111 -40 0 -103 -31 -103 -51 0 -8 -4 -8 -15 1 -11 9 -15 33
-15 86 l0 74 303 0 303 0 1 -107z m-432 -78 c32 -31 33 -90 4 -147 -12 -23
-57 -78 -100 -122 l-79 -81 0 64 c0 47 6 78 22 110 16 33 23 64 23 111 -1 75
10 89 68 90 27 0 45 -7 62 -25z m-336 -41 c62 -18 91 -53 91 -108 0 -110 -120
-187 -285 -183 -126 4 -198 53 -209 142 -10 77 31 127 122 151 63 16 224 15
281 -2z m769 -124 c-1 -155 3 -150 -119 -150 l-82 0 65 68 c75 78 128 156 128
189 0 13 2 23 4 23 3 0 4 -59 4 -130z m-623 -180 l1 -100 -323 0 -323 0 0 81
0 82 21 -27 c66 -83 253 -114 410 -66 68 20 183 89 193 115 14 37 21 7 21 -85z"/>
</g>
</svg>
